<?xml version="1.0" encoding="iso-8859-1"?>
<!DOCTYPE svg PUBLIC "-//W3C//DTD SVG 1.1//EN" "http://www.w3.org/Graphics/SVG/1.1/DTD/svg11.dtd">
<svg version="1.1" xmlns="http://www.w3.org/2000/svg" xmlns:xlink="http://www.w3.org/1999/xlink" x="0px" y="0px" viewBox="-44.05 -0.04 160 66" style="enable-background:new -44.05 -0.04 160 66;" xml:space="preserve">

	<style type='text/css'><![CDATA[
		.logo_large, .logo_small {
			display : none;}

		path, polygon {
			fill : #fff;
			}

		@media screen and (min-width: 125px) {
			.logo_large {
				display : block;}}
		}

		@media screen and (max-width: 124px) {
			.logo_small {
				display : block;}}
		}
	]]></style>

	<g class="logo_large">	
		<polygon points="-27.455, 27.856 -35.162, 27.856 -35.162, 19.048 -27.455, 19.048 -27.455, 14.644 -35.162, 14.644 -35.162, 6.936 -27.455, 6.936 -27.455, 1.431 -41.768, 1.431 -41.768, 33.361 -42.869, 33.361 -42.869, 37.765 -36.263, 37.765 -36.263, 64.189 -30.758, 64.189 -30.758, 37.765 -25.253, 37.765 -25.253, 33.361 -27.455, 33.361" />
		<polygon points="-2.132, 33.361 3.373, 33.361 3.373, 64.189 8.878, 64.189 8.878, 33.361 12.181, 33.361 12.181, 27.856 4.474, 27.856 4.474, 19.048 12.181, 19.048 12.181, 14.644 4.474, 14.644 4.474, 6.937 12.181, 6.937 12.181, 1.431 -2.132, 1.431" />
		<path d="M35.412, 33.361l-6.056-13.873c2.642-1.541, 4.074-4.404, 4.074-8.368c0-3.193-0.771-5.615-2.312-7.157 c-1.541-1.652-3.964-2.532-7.157-2.532l-7.377, 0l0, 31.929h-2.202l0, 30.828h5.505l0-16.956c0-1.982-0.22-3.964-0.551-5.065h0.33 l9.689, 22.02l7.046, 0l0-30.828H35.412z M22.09, 6.937l1.431, 0c1.321, 0, 2.312, 0.22, 2.973, 0.881s0.991, 1.762, 0.991, 3.413 c0, 1.541-0.33, 2.642-0.881, 3.413s-1.541, 1.101-2.973, 1.101H22.09L22.09, 6.937z M31.229, 55.381l-9.579-22.02h0.44l0-12.111h2.092 l4.955, 12.111h1.762l0, 16.735c0, 2.092, 0.33, 4.184, 0.551, 5.285H31.229z" />
		<polygon points="40.807, 33.361 46.312, 33.361 46.312, 20.479 54.02, 1.431 47.854, 1.431 43.67, 13.873 39.486, 1.431 33.321, 1.431 40.807, 20.699" />
		<polygon points="108.63, 1.431 104.446, 13.873 100.262, 1.431 94.096, 1.431 101.363, 20.699 101.363, 33.361 106.868, 33.361 106.868, 20.479 114.685, 1.431" />
		<path d="M-8.738, 45.472h-7.707l0-12.111l5.065, 0l7.377-31.929l-5.835, 0l-4.074, 19.268c-0.44, 2.092-0.881, 4.514-1.101, 7.046 c-0.33-3.083-0.771-5.505-1.101-7.157l-4.074-19.158l-5.945, 0l7.377, 31.929h-3.193l0, 30.828l5.505, 0l0-13.212h7.707l0, 13.212h5.505 l0-30.828h-5.505L-8.738, 45.472z" />
		<path d="M72.627, 5.615c-2.092-2.753-4.955-4.184-8.588-4.184l-8.918, 0l0, 31.379c0-0.11-1.431-0.22-2.312-0.22 c-4.074, 0-7.046, 1.431-9.359, 4.294c-2.312, 2.863-3.303, 6.826-3.303, 11.891c0, 5.285, 0.991, 9.248, 2.973, 12.001 c1.982, 2.753, 4.955, 4.184, 8.588, 4.184c3.083, 0, 5.615-0.55, 8.918-1.762l0-16.625l-9.909, 0l0, 5.505h4.404v7.267 c-1.101, 0.22-2.202, 0.33-3.193, 0.33c-1.762, 0-3.303-0.991-4.184-2.863c-0.991-1.762-1.431-4.514-1.431-8.037 c0-3.413, 0.661-6.166, 1.872-8.147c1.321-1.982, 3.083-2.973, 5.285-2.973c1.541, 0, 3.193, 0.551, 4.955, 1.541l1.872-4.624 c-1.101-0.661-2.202-1.211-3.303-1.211h6.386c3.964, 0, 7.046-1.541, 9.138-4.294s3.193-6.826, 3.193-12.001 C75.599, 12.221, 74.608, 8.368, 72.627, 5.615z M68.112, 25.323c-0.991, 1.762-2.642, 2.532-4.734, 2.532h-1.652l0-20.919l2.092, 0 c3.854, 0, 5.835, 3.413, 5.835, 10.46C69.654, 20.919, 69.103, 23.452, 68.112, 25.323z" />
		<path d="M91.013, 1.431l-7.927, 0l-7.707, 31.709c0.22, 0.11, 0.44, 0.22, 0.771, 0.22l5.065, 0l1.762-7.707l8.147, 0l1.762, 7.707h5.835 L91.013, 1.431z M84.077, 20.149c1.211-5.505, 1.982-8.808, 2.202-10.239s0.551-2.863, 0.661-4.074c0.11, 0.551, 0.33, 1.762, 0.661, 3.523 c0.33, 1.762, 0.551, 2.973, 0.661, 3.413l1.652, 7.377L84.077, 20.149z" />
		<path d="M75.379, 33.141c-1.211-0.33-2.312-0.551-3.633-0.551c-2.532, 0-4.514, 0.771-6.056, 2.312 c-1.541, 1.541-2.202, 3.743-2.202, 6.386c0, 1.431, 0.22, 2.642, 0.551, 3.743s0.881, 1.982, 1.652, 2.863 c0.661, 0.881, 1.762, 1.762, 3.083, 2.642c1.541, 1.101, 2.642, 1.982, 3.303, 2.863c0.661, 0.881, 0.991, 1.872, 0.991, 2.863 c0, 1.101-0.33, 1.872-0.881, 2.532c-0.551, 0.661-1.541, 0.881-2.642, 0.881c-1.982, 0-4.404-0.771-6.606-2.312v5.835 c2.202, 1.101, 4.294, 1.652, 7.046, 1.652s4.955-0.771, 6.496-2.312s2.202-3.854, 2.202-6.716c0-1.872-0.44-3.523-1.211-4.955  c-0.881-1.431-2.312-2.863-4.294-4.294c-1.541-0.991-2.532-1.872-3.193-2.642c-0.661-0.771-0.881-1.762-0.881-2.753 c0-1.101, 0.22-1.872, 0.771-2.532s1.211-0.881, 2.202-0.881c0.881, 0, 1.652, 0.11, 2.422, 0.44c0.771, 0.33, 1.431, 0.661, 2.202, 1.101 l1.982-4.734c-0.881-0.551-1.762-0.881-2.642-1.211h-0.771L75.379, 33.141z" />
		<path d="M75.269, 33.361h0.771c-0.22-0.11-0.44-0.22-0.771-0.22V33.361z" />
	</g>


	<g class="logo_small">
		<path d="M-33.658, 19.662h-8.101V1.689h8.101v2.889h-4.758v4.278h4.413v2.901h-4.413v4.979h4.758V19.662z" />
		<path d="M-24.566, 1.689h3.368l-4.229, 17.972h-4.253l-4.204-17.972h3.368l2.348, 10.977c0.213, 0.935, 0.422, 2.274, 0.627, 4.02 c0.172-1.484, 0.389-2.823, 0.652-4.02L-24.566, 1.689z" />
		<path d="M-12.77, 19.662h-8.101V1.689h8.101v2.889h-4.758v4.278h4.413v2.901h-4.413v4.979h4.758V19.662z" />
		<path d="M-8.066, 12.667v6.995h-3.344V1.689h4.376c1.852, 0, 3.219, 0.438, 4.1, 1.315c0.881, 0.877, 1.322, 2.217, 1.322, 4.02 c0, 2.27-0.766, 3.856-2.299, 4.758l3.454, 7.88h-3.577l-2.84-6.995H-8.066z M-8.066, 9.79h0.86c0.787, 0, 1.352-0.223, 1.697-0.67 c0.344-0.447, 0.516-1.113, 0.516-1.998c0-0.918-0.182-1.572-0.547-1.961c-0.365-0.389-0.928-0.584-1.69-0.584h-0.836V9.79z" />
		<path d="M4.247, 8.783l2.397-7.093h3.503L5.882, 12.458v7.204H2.587v-7.069L-1.666, 1.689h3.528L4.247, 8.783z" />
		<path d="M21.907, 10.503c0, 2.967-0.604, 5.235-1.813, 6.804c-1.209, 1.57-2.948, 2.355-5.218, 2.355h-4.401V1.689h4.807 c2.089, 0, 3.716, 0.773, 4.88, 2.317C21.325, 5.551, 21.907, 7.717, 21.907, 10.503z M18.477, 10.602c0-4.016-1.106-6.024-3.319-6.024h-1.34 v12.158H14.9c1.221, 0, 2.122-0.51, 2.704-1.531C18.186, 14.185, 18.477, 12.651, 18.477, 10.602z" />
		<path d="M31.773, 19.662l-1.033-4.536h-4.684l-1.033, 4.536h-3.344l4.45-18.046h4.536l4.463, 18.046H31.773z M30.114, 12.163 l-0.959-4.179c-0.057-0.254-0.186-0.891-0.387-1.912c-0.201-1.02-0.322-1.702-0.363-2.047c-0.107, 0.705-0.242, 1.481-0.406, 2.33 c-0.164, 0.848-0.59, 2.784-1.278, 5.808H30.114z" />
		<path d="M39.353, 8.783l2.398-7.093h3.503l-4.266, 10.769v7.204h-3.294v-7.069L33.44, 1.689h3.528L39.353, 8.783z" />
		<path d="M56.061, 19.662h-3.331V4.627h-3.442V1.689h10.215v2.938h-3.442V19.662z" />
		<path d="M71.264, 19.662H67.92v-7.88h-4.413v7.88h-3.344V1.689h3.344v7.142h4.413V1.689h3.344V19.662z" />
		<path d="M73.779, 19.662V1.689h3.148v17.972H73.779z" />
		<path d="M92.054, 19.662h-4.082L82.415, 6.644h-0.16c0.205, 0.991, 0.307, 2.057, 0.307, 3.196v9.822h-3.098V1.689h4.106l5.508, 12.883 h0.135c-0.156-0.86-0.233-1.885-0.233-3.073v-9.81h3.074V19.662z" />
		<path d="M99.401, 9.692h5.495v9.22c-1.558, 0.663-3.214, 0.996-4.967, 0.996c-2.09, 0-3.698-0.795-4.826-2.385 c-1.126-1.589-1.69-3.88-1.69-6.871c0-2.885, 0.646-5.143, 1.937-6.773c1.29-1.631, 3.096-2.446, 5.415-2.446 c1.434, 0, 2.803, 0.369, 4.106, 1.106l-1.057, 2.729c-1.017-0.59-1.967-0.885-2.852-0.885c-1.27, 0-2.276, 0.567-3.018, 1.702 c-0.742, 1.135-1.112, 2.682-1.112, 4.641c0, 2.016, 0.267, 3.561, 0.804, 4.634c0.537, 1.074, 1.317, 1.61, 2.342, 1.61 c0.541, 0, 1.09-0.069, 1.648-0.209v-4.118h-2.225V9.692z" />
		<path d="M114.566, 14.708c0, 1.68-0.424, 2.967-1.272, 3.86c-0.848, 0.893-2.072, 1.339-3.67, 1.339c-1.565, 0-2.897-0.307-3.995-0.921 v-3.307c1.345, 0.877, 2.577, 1.315, 3.7, 1.315c0.639, 0, 1.121-0.176, 1.445-0.529c0.323-0.352, 0.485-0.832, 0.485-1.438 c0-0.598-0.192-1.146-0.578-1.641c-0.384-0.496-1.02-1.047-1.906-1.653c-0.77-0.533-1.354-1.043-1.751-1.531 c-0.398-0.487-0.705-1.035-0.922-1.641c-0.217-0.606-0.326-1.311-0.326-2.115c0-1.54, 0.428-2.762, 1.285-3.663 c0.857-0.901, 2.006-1.352, 3.449-1.352c1.376, 0, 2.7, 0.385, 3.97, 1.155l-1.106, 2.68c-0.393-0.229-0.804-0.434-1.235-0.615 c-0.43-0.18-0.891-0.27-1.383-0.27c-0.541, 0-0.957, 0.178-1.247, 0.534c-0.291, 0.357-0.437, 0.842-0.437, 1.457 c0, 0.606, 0.173, 1.135, 0.522, 1.586c0.348, 0.451, 0.957, 0.963, 1.825, 1.537c1.172, 0.787, 1.99, 1.59, 2.453, 2.409 C114.334, 12.724, 114.566, 13.659, 114.566, 14.708z" />
	</g>

</svg>
